<svg width="57" height="57" viewBox="0 0 57 57" fill="none" xmlns="http://www.w3.org/2000/svg">
<g clip-path="url(#clip0_656_13569)">
<circle cx="28.5" cy="28.5" r="28.5" fill="#66DA94" fill-opacity="0.05"/>
<path d="M32.2068 24.0443V24.7943H32.9568H39.5443C41.591 24.7943 43.25 26.4536 43.25 28.5006C43.25 30.5474 41.5906 32.2068 39.5438 32.2068H32.9562H32.2062V32.9568V39.5443C32.2062 41.5912 30.5468 43.2506 28.5 43.2506C26.4532 43.2506 24.7938 41.5912 24.7938 39.5443V32.9562V32.2062H24.0438H17.4562C15.4094 32.2062 13.75 30.5468 13.75 28.5C13.75 26.4532 15.4094 24.7938 17.4562 24.7938H24.0444H24.7944V24.0438V17.4562C24.7944 15.4094 26.4538 13.75 28.5006 13.75C30.5474 13.75 32.2068 15.4094 32.2068 17.4562V24.0443Z" fill="#66DA94" stroke="#5BC686" stroke-width="1.5"/>
<path d="M49.5346 2.45234L50.9018 6.72172C50.9602 6.90443 51.0761 7.04933 51.2225 7.12251L54.638 8.83157C55.1207 9.07316 55.1207 9.92684 54.638 10.1684L51.2225 11.8775C51.0763 11.9507 50.9605 12.0956 50.9018 12.2783L49.5346 16.5477C49.3415 17.1508 48.6583 17.1508 48.4653 16.5477L47.0981 12.2783C47.0396 12.0956 46.9237 11.9507 46.7773 11.8775L43.3618 10.1684C42.8794 9.92684 42.8794 9.07316 43.3618 8.83157L46.7773 7.12251C46.9235 7.04933 47.0394 6.90443 47.0981 6.72172L48.4653 2.45234C48.6583 1.84922 49.3413 1.84922 49.5346 2.45234Z" fill="#BDE2CC"/>
</g>
<defs>
<clipPath id="clip0_656_13569">
<rect width="57" height="57" fill="white"/>
</clipPath>
</defs>
</svg>
